<mxfile host="app.diagrams.net" modified="2023-09-02T01:55:23.239Z" agent="Mozilla/5.0 (Windows NT 10.0; Win64; x64) AppleWebKit/537.36 (KHTML, like Gecko) Chrome/116.0.0.0 Safari/537.36 Edg/116.0.1938.62" version="21.7.2" etag="vSztg9JFD_pQUZ8uKp4q" type="github">
  <diagram name="第 1 页" id="oAc0U7i2WO9zVuW95_pL">
    <mxGraphModel>
      <root>
        <mxCell id="0" />
        <mxCell id="1" parent="0" />
      </root>
    </mxGraphModel>
  </diagram>
</mxfile>
